PathFileType	4	(X/Y/Z)	C:\Users\Basilio\Documents\Thesis Gigler\squatting_fais\c3dfiles\073\SLS_front_pre3\markers_experimental.trc
DataRate	CameraRate	NumFrames	NumMarkers	Units	OrigDataRate	OrigDataStartFrame	OrigNumFrames
200.000000	200.000000	4	61	mm	200.000000	1183	1353
Frame#	Time	FHD			LBHD			RBHD			C7			T10			CLAV			LSHO			LUUPA			LMUPA			LDUPA			LLEP			LMEP			LRAD			LUL			LRFIN			RSHO			RUPA1			RMUPA			RDUPA			RLEP			RMEP			RRAD			RUL			RUFIN			LASI			RASI			USACR			LSACR			RSACR			LTHI1			LTHI2			LTHI3			LTHI4			LLFC			LMFC			LTIB1			LTIB2			LTIB3			LTIB4			LLMAL			LMMAL			LHEE			LMT1			LMT2			LMT5			RTHI			RTHI2			RTHI3			RTHI4			RLFC			RMFC			RTIB1			RTIB2			RTIB3			RTIB4			RLMAL			RMMAL			RHEE			RMT1			RMT2			RMT5			
		X1	Y1	Z1	X2	Y2	Z2	X3	Y3	Z3	X4	Y4	Z4	X5	Y5	Z5	X6	Y6	Z6	X7	Y7	Z7	X8	Y8	Z8	X9	Y9	Z9	X10	Y10	Z10	X11	Y11	Z11	X12	Y12	Z12	X13	Y13	Z13	X14	Y14	Z14	X15	Y15	Z15	X16	Y16	Z16	X17	Y17	Z17	X18	Y18	Z18	X19	Y19	Z19	X20	Y20	Z20	X21	Y21	Z21	X22	Y22	Z22	X23	Y23	Z23	X24	Y24	Z24	X25	Y25	Z25	X26	Y26	Z26	X27	Y27	Z27	X28	Y28	Z28	X29	Y29	Z29	X30	Y30	Z30	X31	Y31	Z31	X32	Y32	Z32	X33	Y33	Z33	X34	Y34	Z34	X35	Y35	Z35	X36	Y36	Z36	X37	Y37	Z37	X38	Y38	Z38	X39	Y39	Z39	X40	Y40	Z40	X41	Y41	Z41	X42	Y42	Z42	X43	Y43	Z43	X44	Y44	Z44	X45	Y45	Z45	X46	Y46	Z46	X47	Y47	Z47	X48	Y48	Z48	X49	Y49	Z49	X50	Y50	Z50	X51	Y51	Z51	X52	Y52	Z52	X53	Y53	Z53	X54	Y54	Z54	X55	Y55	Z55	X56	Y56	Z56	X57	Y57	Z57	X58	Y58	Z58	X59	Y59	Z59	X60	Y60	Z60	X61	Y61	Z61	

1184	5.915	-173.6055908203125	1681.187866210938	-811.792175292969	-311.5325622558594	1675.371337890625	-831.811218261719	-333.3340759277344	1663.959838867188	-697.1265258789064	-383.0515441894532	1553.417602539063	-758.6441650390626	-431.5073547363282	1215.328735351563	-748.4957275390626	-261.7571716308594	1465.51904296875	-761.0592041015626	-291.1026306152344	1501.75634765625	-910.7393798828127	-213.7588653564454	1413.274169921875	-1000.684753417969	-170.8753051757813	1432.690063476563	-981.4045410156252	-152.9563446044922	1381.591552734375	-1010.149475097656	-51.05299377441408	1350.578735351563	-1015.069458007813	-57.4878387451172	1297.339965820313	-968.4905395507815	212.4262695312501	1357.581420898438	-910.9795532226565	214.0994415283204	1353.51220703125	-985.5942993164065	294.0202636718751	1362.831176757813	-906.3186645507815	-272.1339416503907	1497.552001953125	-610.3068847656251	-188.3881225585938	1377.258422851563	-518.3566894531251	-146.3594055175782	1394.524169921875	-533.5197143554689	-129.7691497802735	1340.732299804688	-513.5081787109376	-42.14253616333009	1310.813720703125	-514.9733886718751	-54.31807708740236	1259.93017578125	-579.1704101562501	nan	nan	nan	221.6179351806641	1309.266723632813	-554.6705932617189	302.4584350585938	1311.401489257813	-634.7585449218751	-279.0620117187501	1070.748046875	-900.6031494140627	-252.5969543457032	1032.7646484375	-650.3524169921876	-447.6445617675782	1113.405029296875	-747.8906250000001	-464.1810302734376	1088.208862304688	-778.1789550781252	-460.4815368652345	1079.757080078125	-722.4851074218751	-262.4113159179688	753.1009521484376	-957.0551757812502	-218.6177978515626	681.8748168945314	-939.506042480469	-180.7016143798828	690.7344970703126	-908.702575683594	-239.5344238281251	627.1279907226564	-937.1759033203127	-236.9860992431641	568.4358520507814	-940.228454589844	-252.2781982421876	559.3775024414064	-804.6895751953127	-232.4639587402344	365.5567626953126	-894.8228149414065	-292.3047485351563	339.3653564453126	-954.5491333007815	-256.8934936523438	324.1902160644532	-929.7160644531252	-276.8193359375001	246.9222412109376	-900.1364746093752	-362.9988403320313	147.1844024658203	-935.9052734375002	-351.8822326660157	165.3340606689453	-850.192565917969	-429.5396728515626	126.2212295532227	-898.1731567382815	-216.0267639160157	72.30113983154298	-847.606140136719	-211.8775939941407	74.51348114013673	-886.6006469726565	-247.2061309814454	61.56087493896486	-942.3975830078127	-359.5756530761719	800.8317871093752	-597.0806884765626	-328.3815307617188	742.2472534179689	-597.6694946289064	-294.4644165039063	741.8031005859376	-601.5159912109376	-360.9377746582032	669.0158081054689	-624.6400146484376	-350.9646911621094	518.7591552734376	-650.1517944335939	-345.0187377929688	515.4074707031251	-781.2351684570315	-303.1352539062501	364.0173034667969	-747.5942382812501	-327.1598205566407	276.7542114257813	-687.7061767578126	-301.2268371582032	279.0040588378907	-728.4403686523439	-317.0698547363282	236.0142059326172	-764.9596557617189	-366.4594421386719	102.3463287353516	-724.8522338867189	-357.4061584472657	128.944320678711	-808.0676269531252	-433.5390930175782	83.57124328613283	-782.5024414062502	-208.0270080566407	55.09561920166017	-788.6695556640627	-210.0672149658204	51.79418563842775	-747.3373413085939	-255.3270568847657	34.6169548034668	-700.9815673828126	
1185	5.92	-173.4497528076172	1681.17041015625	-811.791687011719	-311.5327148437501	1675.340698242188	-831.878845214844	-333.3731079101563	1663.903930664063	-697.1114501953126	-383.1353454589844	1553.3955078125	-758.8041992187501	-431.569549560547	1215.266479492188	-748.7952270507814	-261.9429016113282	1465.435546875	-761.2237548828126	-291.0863037109376	1501.777099609375	-910.8535156250002	-213.776840209961	1413.21240234375	-1000.921936035156	-170.8673858642578	1432.636474609375	-981.4874267578127	-152.9619750976563	1381.593627929688	-1010.312622070313	-51.0317726135254	1350.552612304688	-1015.083251953125	-57.5034637451172	1297.277099609375	-968.5244750976565	212.3427734375001	1357.362060546875	-910.9418945312502	214.0912780761719	1353.38427734375	-985.533386230469	293.9848937988282	1362.604370117188	-906.214538574219	-272.3179931640626	1497.46044921875	-610.3685913085939	-188.6583404541016	1377.095458984375	-518.4468994140626	-146.5689239501953	1394.357299804688	-533.5849609375001	-130.0080261230469	1340.58154296875	-513.5860595703126	-42.36913299560548	1310.6484375	-515.0609741210939	-54.50825500488283	1259.782836914063	-579.2973632812501	nan	nan	nan	221.3646240234376	1309.10888671875	-554.6762084960939	302.1161193847657	1311.424438476563	-634.6339111328126	-278.8473510742188	1070.675659179688	-900.725524902344	-252.7452850341797	1032.760009765625	-650.4119262695314	-447.752166748047	1113.377319335938	-748.2266845703126	-464.0769958496095	1088.143798828125	-778.5721435546877	-460.532928466797	1079.724609375	-722.8165283203126	-263.0737609863282	752.8074340820314	-957.2340087890627	-219.1685485839844	681.5659790039064	-939.7662353515627	-181.2593841552735	690.3328857421876	-908.878112792969	-240.3862304687501	626.8424072265626	-937.5246582031252	-237.9193267822266	568.0711059570314	-940.5564575195315	-253.0415954589844	559.0130004882814	-804.9223632812502	-233.3034362792969	365.2314147949219	-895.065612792969	-293.1264953613282	339.0115051269532	-954.9023437500002	-257.7259826660157	323.7891235351563	-929.888854980469	-277.6943359375001	246.6134643554688	-900.3389892578127	-363.7216186523438	146.739501953125	-935.9939575195315	-353.6564636230469	165.0728454589844	-850.0664062500002	-430.3081970214845	125.8447189331055	-898.1021118164065	-216.8076171875001	71.89253997802736	-847.6406860351565	-212.7280731201172	73.91790771484376	-886.7951660156252	-248.2395324707032	60.92009353637697	-942.556579589844	-359.7826538085938	800.8985595703127	-597.2579345703126	-328.5902709960938	742.3110961914064	-597.7999267578126	-294.6676940917969	741.8639526367189	-601.5895385742189	-361.0279541015626	669.0214843750001	-624.7595214843751	-351.1137084960938	518.8116455078126	-650.1820678710939	-344.9131164550782	515.3699340820314	-781.2187500000002	-303.1122436523438	364.0161743164063	-747.5960083007814	-327.3168334960938	276.7768554687501	-687.6289062500001	-301.2993774414063	279.0016784667969	-728.3522949218751	-317.0466308593751	235.9970703125001	-764.8899536132814	-366.4909973144532	102.3362045288086	-724.8301391601564	-357.4289550781251	128.9490203857422	-808.0302734375002	-433.5165100097657	83.56233978271486	-782.486022949219	-208.0299224853516	55.10620117187501	-788.662780761719	-210.0722198486329	51.79588317871095	-747.3444213867189	-255.333724975586	34.60503768920899	-700.9694213867189	
1186	5.925	-173.6118774414063	1681.088500976563	-811.860046386719	-311.5554809570313	1675.376098632813	-831.9299316406252	-333.4519653320313	1663.933837890625	-697.2039184570314	-383.2516174316407	1553.384521484375	-758.9758300781251	-431.5702209472657	1215.241821289063	-749.2048950195314	-262.0631408691407	1465.388793945313	-761.2949218750001	-291.1167907714844	1501.757080078125	-911.0335693359377	-213.6807250976563	1413.148681640625	-1000.95703125	-170.8927154541016	1432.618041992188	-981.5478515625002	-152.9183959960938	1381.558837890625	-1010.424743652344	-50.94157791137697	1350.488159179688	-1015.119323730469	-57.54317855834962	1297.225463867188	-968.614685058594	212.3849029541016	1357.27783203125	-910.9088134765627	214.127670288086	1353.19921875	-985.501159667969	293.9569091796876	1362.416259765625	-906.1062011718752	-272.5196228027344	1497.364868164063	-610.4910888671876	-188.8762359619141	1376.968139648438	-518.5417480468751	-146.8140106201172	1394.160522460938	-533.6440429687501	-130.2547149658203	1340.42431640625	-513.7011108398439	-42.63008117675782	1310.468872070313	-515.1087036132814	-54.76601028442384	1259.611206054688	-579.4057006835939	nan	nan	nan	221.1223754882813	1308.876586914063	-554.6787109375001	301.8990478515626	1311.21337890625	-634.6498413085939	-278.6624755859376	1070.561645507813	-900.8696899414065	-252.8646697998047	1032.770874023438	-650.4935913085939	-447.7641906738282	1113.29736328125	-748.5213623046876	-464.0486755371095	1088.099365234375	-778.9107055664065	-460.5568847656251	1079.688720703125	-723.2155761718751	-263.6259155273438	752.5466918945314	-957.4633789062502	-219.9634094238282	681.2417602539064	-939.967712402344	-182.2764282226563	689.7876586914064	-908.9508056640627	-241.2405395507813	626.4692993164064	-937.7377929687502	-238.9252929687501	567.7274169921876	-940.872985839844	-253.8895568847657	558.6761474609376	-805.3031005859377	-234.2181549072266	364.8307800292969	-895.3835449218752	-293.9889831542969	338.6026000976563	-954.9121704101565	-258.7121887207032	323.3695983886719	-930.2078247070315	-278.5436401367188	246.1951904296876	-900.5982666015627	-364.5056762695313	146.2442169189453	-936.026794433594	-354.4333496093751	164.6329040527344	-850.1172485351565	-430.991668701172	125.4446334838867	-898.0701293945315	-217.5466461181641	71.31018829345705	-847.7731933593752	-213.400863647461	73.33860778808595	-887.0501708984377	-248.8682403564454	60.36140060424806	-942.6404418945315	-359.9189147949219	800.9429321289065	-597.4174804687501	-328.7487487792969	742.3538208007814	-597.8815307617189	-294.8173522949219	741.9310913085939	-601.6393432617189	-361.1953735351563	669.0723876953126	-624.8314819335939	-351.2291564941407	518.8558349609376	-650.2254638671876	-344.8840332031251	515.3410034179689	-781.3071289062502	-303.1066894531251	364.0538024902344	-747.5170288085939	-327.4817199707032	276.7324523925782	-687.6014404296876	-301.3658447265626	279.0083007812501	-728.2632446289064	-317.1293640136719	236.0043334960938	-764.8348999023439	-366.5127258300782	102.3149871826172	-724.8023071289064	-357.3722839355469	128.971435546875	-807.9846191406252	-433.5432128906251	83.58869934082033	-782.482604980469	-208.0233001708985	55.13204956054689	-788.660339355469	-210.0897521972657	51.77667617797853	-747.2992553710939	-255.3321685791016	34.58733367919923	-700.9644165039064	
1187	5.93	-173.5124816894532	1681.05859375	-811.8303222656252	-311.5140686035157	1675.391357421875	-831.9937744140627	-333.5538024902344	1663.894653320313	-697.3173217773439	-383.2887268066407	1553.337524414063	-759.1560058593751	-431.6228942871095	1215.172241210938	-749.5241699218751	-262.1615600585938	1465.314453125	-761.3970947265626	-291.1112365722657	1501.758544921875	-911.167175292969	-213.6490173339844	1413.16748046875	-1001.044738769531	-170.848876953125	1432.573486328125	-981.6512451171877	-152.9837799072266	1381.537841796875	-1010.502990722656	-51.06173324584962	1350.468505859375	-1015.199035644531	-57.59764480590822	1297.117919921875	-968.7063598632815	212.2972564697266	1357.018432617188	-910.8208007812502	214.1210327148438	1353.057861328125	-985.4878540039065	293.9097290039063	1362.2109375	-906.0197753906252	-272.6881408691407	1497.256103515625	-610.6085205078126	-189.0752105712891	1376.784545898438	-518.6237792968751	-147.0524597167969	1393.999755859375	-533.6915283203126	-130.5122833251953	1340.274047851563	-513.7893676757814	-42.93750762939454	1310.284423828125	-515.1922607421876	-55.07027816772462	1259.42529296875	-579.4531250000001	nan	nan	nan	220.8554229736329	1308.677978515625	-554.6109008789064	301.6618652343751	1310.96875	-634.6142578125001	-278.4419250488282	1070.492919921875	-900.9948730468752	-252.9817352294922	1032.814208984375	-650.5894165039064	-447.721405029297	1113.223754882813	-748.9121704101564	-464.0979003906251	1088.019775390625	-779.2139282226565	-460.5556945800782	1079.628295898438	-723.5633544921876	-264.0230407714844	752.3173217773439	-957.685729980469	-220.7163848876954	680.8815307617189	-940.2503662109377	-183.0671539306641	689.2435302734376	-909.2698364257815	-242.0155792236329	626.1806030273439	-938.0056762695315	-239.7940063476563	567.3098144531251	-941.2114868164065	-254.8468475341797	558.2413940429689	-805.5347900390627	-235.0836791992188	364.4910583496094	-895.6665649414065	-294.8454284667969	338.1568298339844	-955.1236572265627	-259.5319519042969	322.9474487304688	-930.6436157226565	-279.4354553222657	245.730697631836	-900.7789306640627	-365.2916870117188	145.7370300292969	-936.053894042969	-355.1891784667969	164.2141265869141	-850.1474609375002	-431.7608642578126	125.0560302734375	-897.8966064453127	-218.2919464111329	70.67179107666017	-847.9583740234377	-214.4475708007813	72.67016601562501	-887.1539306640627	-249.9954681396485	59.6992530822754	-942.6881103515627	-360.1264648437501	801.0020751953127	-597.5677490234376	-328.9425659179688	742.4113159179689	-597.9726562500001	-294.9978942871094	742.0053710937501	-601.6795043945314	-361.3196105957032	669.1314086914064	-624.9039306640626	-351.4024047851563	518.8590087890626	-650.2800903320314	-344.8113708496094	515.3339233398439	-781.308044433594	-303.1668395996094	364.0834960937501	-747.4810791015626	-327.6086730957032	276.7261047363282	-687.5997314453126	-301.4187316894532	279.0594177246094	-728.1829833984376	-317.1438293457032	235.9920501708985	-764.7340698242189	-366.5217285156251	102.3108749389649	-724.7437744140626	-357.4618835449219	129.0323944091797	-807.963562011719	-433.5575561523439	83.58044433593751	-782.4644775390627	-207.9986572265626	55.16545867919923	-788.6418457031252	-210.0978088378907	51.76933670043947	-747.2968750000001	-255.3314666748047	34.58823013305665	-700.9638671875001	
